# xmcd
#
# Track frame offsets:
# 150
# 14127
# 26094
# 38884
# 54340
# 66135
# 80817
# 93107
# 108598
# 128513
# 155088
# 182621
# 201267
# 223643
#
# Disc length: 3314 seconds
#
#
# Revision: 1
# Processed by: cddbd v1.5.1PL0 Copyright (c) Steve Scherf et al.
# Submitted via: FreeRIP 2.93 
#
DISCID=c30cf00e
DTITLE=Jelly Roll Morton and Kid Ory - Jazz and dintorni - Vol. 43
DYEAR=1900
DGENRE=Jazz
TTITLE0=Jelly Roll Morton - Jelly Roll Blues
TTITLE1=Jelly Roll Morton - King Porter
TTITLE2=Jelly Roll Morton - New Orleans Joy
TTITLE3=Jelly Roll Morton - Wolverine Blues
TTITLE4=Jelly Roll Morton - Grandpa's Spells
TTITLE5=Jelly Roll Morton - The Pearls
TTITLE6=Jelly Roll Morton - Perfect Rag
TTITLE7=Kid Ory - Down Home Rag
TTITLE8=Kid Ory - Do What Ory Say
TTITLE9=Kid Ory - When The Saints Go Marching In
TTITLE10=Kid Ory -  Savoy Blues
TTITLE11=Kid Ory - High Society
TTITLE12=Kid Ory - Bourbon Street Parade
TTITLE13=Kid Ory - Beale Street Blues
EXTD=
EXTT0=
EXTT1=
EXTT2=
EXTT3=
EXTT4=
EXTT5=
EXTT6=
EXTT7=
EXTT8=
EXTT9=
EXTT10=
EXTT11=
EXTT12=
EXTT13=
PLAYORDER=
